<svg width="540" height="540" viewBox="0 0 540 540" fill="white" xmlns="http://www.w3.org/2000/svg">
  <g clip-path="url(#clip0_116_2)">
    <path fill-rule="evenodd" clip-rule="evenodd"
      d="M79.1 79.1C52.0 106.2 42.0 144.0 49.7 178.1C19.7 197.6 0 231.7 0 270C0 308.3 19.7 342.4 49.7 361.9C42.0 396.0 52.0 433.8 79.1 460.9C106.2 488.0 144.0 498.0 178.1 490.3C197.6 520.3 231.7 540 270 540C308.3 540 342.4 520.3 361.9 490.3C396.0 498.0 433.8 488.0 460.9 460.9C488.0 433.8 498.0 396.0 490.3 361.9C520.3 342.4 540 308.3 540 270C540 231.7 520.3 197.6 490.3 178.1C498.0 144.0 488.0 106.2 460.9 79.1C433.8 52.0 396.0 42.0 361.9 49.7C342.4 19.7 308.3 0 270 0C231.7 0 197.6 19.7 178.1 49.7C144.0 42.0 106.2 52.0 79.1 79.1Z"
      fill="#ffffffff"/>
  </g>
  <defs>
    <clipPath id="clip0_116_2">
      <rect width="540" height="540" fill="white"/>
    </clipPath>
  </defs>
</svg>